<?xml version="1.0" encoding="utf-8"?>
<!-- Generator: Adobe Illustrator 16.0.0, SVG Export Plug-In . SVG Version: 6.00 Build 0)  -->
<!DOCTYPE svg PUBLIC "-//W3C//DTD SVG 1.1//EN" "http://www.w3.org/Graphics/SVG/1.1/DTD/svg11.dtd">
<svg version="1.1" id="Layer_1" xmlns="http://www.w3.org/2000/svg" xmlns:xlink="http://www.w3.org/1999/xlink" x="0px" y="0px"
	 width="216px" height="146px" viewBox="0 0 216 146" enable-background="new 0 0 216 146" xml:space="preserve">
<g>
	<path fill="#FFFFFF" d="M144.301,66.08l-7.65-13.047c-3.85-6.668-10.146-17.583-14-24.252L115,15.523
		c-3.85-6.668-10.15-6.682-14-0.013l-7.65,13.225c-3.85,6.669-10.15,17.529-14,24.198L71.7,66.081
		c-3.2,5.543-1.552,10.095,3.516,11.478c0.475-3.826,4.499-6.812,9.393-6.812c5.081,0,9.213,3.221,9.422,7.256
		c1.366,0,2.889,0,4.507,0c0.353-3.817,4.685-6.8,9.95-6.732c5.151,0.064,9.343,3.02,9.763,6.732c1.335,0,2.603,0,3.751,0h0.202
		c0.356-3.921,4.427-7.016,9.405-7.016c4.771,0,8.709,2.845,9.343,6.537C145.891,76.083,147.467,71.564,144.301,66.08z"/>
	<path fill="none" d="M84.607,70.744c-4.894,0-8.918,2.988-9.393,6.814c-0.031,0.25-0.048,0.502-0.048,0.76
		c0,4.182,4.228,7.572,9.44,7.572c5.215,0,9.442-3.395,9.442-7.572c0-0.107-0.015-0.213-0.021-0.318
		C93.82,73.965,89.688,70.744,84.607,70.744z"/>
	<path fill="none" d="M108.486,71.268c-5.266-0.067-9.598,2.912-9.95,6.732c0.15,0,0.312,0,0.464,0h19c0.081,0,0.168,0,0.249,0
		C117.829,74.287,113.639,71.332,108.486,71.268z"/>
	<path fill="none" d="M131.607,70.984c-4.979,0-9.049,3.095-9.405,7.016c-0.017,0.186-0.035,0.369-0.035,0.557
		c0,4.186,4.228,7.572,9.44,7.572c5.215,0,9.438-3.391,9.438-7.572c0-0.354-0.041-0.697-0.103-1.039
		C140.316,73.829,136.382,70.984,131.607,70.984z"/>
</g>
<path fill="#FFFFFF" d="M103.036,68.479v47.253c0,2.718-1.06,5.134-3.177,7.252c-2.118,2.119-4.536,3.179-7.252,3.179
	c-2.715,0-5.131-1.06-7.25-3.179c-2.119-2.118-3.178-4.534-3.178-7.252c0-1.412-0.516-2.633-1.548-3.666
	c-1.032-1.03-2.254-1.547-3.667-1.547s-2.635,0.517-3.667,1.547c-1.032,1.033-1.548,2.254-1.548,3.666
	c0,5.647,2.064,10.537,6.191,14.666c4.129,4.129,9.018,6.188,14.666,6.188s10.537-2.062,14.666-6.188
	c4.126-4.129,6.191-9.019,6.191-14.666V68.479c-1.793-0.597-3.531-0.896-5.215-0.896C106.564,67.583,104.828,67.882,103.036,68.479z
	"/>
</svg>
