<?xml version="1.0" encoding="utf-8"?>
<!-- Generator: Adobe Illustrator 16.0.0, SVG Export Plug-In . SVG Version: 6.00 Build 0)  -->
<!DOCTYPE svg PUBLIC "-//W3C//DTD SVG 1.1//EN" "http://www.w3.org/Graphics/SVG/1.1/DTD/svg11.dtd">
<svg version="1.1" id="Capa_1" xmlns="http://www.w3.org/2000/svg" xmlns:xlink="http://www.w3.org/1999/xlink" x="0px" y="0px"
	 width="216px" height="146px" viewBox="0 0 216 146" enable-background="new 0 0 216 146" xml:space="preserve">
<g>
	<path fill="#FFFFFF" d="M102.786,70.067v47.253c0,2.717-1.059,5.134-3.177,7.252c-2.118,2.119-4.536,3.178-7.251,3.178
		c-2.715,0-5.132-1.059-7.251-3.178c-2.118-2.118-3.177-4.535-3.177-7.252c0-1.411-0.516-2.633-1.548-3.666
		c-1.033-1.031-2.254-1.547-3.667-1.547s-2.635,0.516-3.667,1.547c-1.032,1.033-1.548,2.255-1.548,3.666
		c0,5.65,2.064,10.537,6.192,14.666s9.017,6.19,14.666,6.19c5.648,0,10.537-2.062,14.665-6.19c4.127-4.129,6.192-9.016,6.192-14.666
		V70.067c-1.793-0.597-3.531-0.896-5.215-0.896C106.317,69.171,104.578,69.47,102.786,70.067z"/>
	<path fill="#FFFFFF" d="M113.215,21.02v-7.984c0-1.412-0.517-2.635-1.549-3.667c-1.031-1.032-2.254-1.548-3.666-1.548
		s-2.634,0.516-3.666,1.548c-1.032,1.033-1.548,2.255-1.548,3.667v7.984c2.281-0.108,4.019-0.163,5.214-0.163
		C109.195,20.857,110.934,20.912,113.215,21.02z"/>
	<path fill="#FFFFFF" d="M175.702,71.697c-1.793-7.495-4.931-14.325-9.41-20.49c-4.483-6.165-9.765-11.244-15.849-15.236
		c-6.082-3.992-12.776-7.074-20.082-9.247c-7.305-2.173-14.76-3.259-22.364-3.259c-10.32,0-20.11,1.847-29.371,5.54
		c-9.261,3.693-17.354,9.247-24.279,16.661c-6.925,7.414-11.61,16.092-14.054,26.031c-0.055,0.108-0.082,0.299-0.082,0.57
		c0,0.706,0.258,1.318,0.774,1.833c0.516,0.517,1.127,0.774,1.833,0.774c0.598,0,1.222-0.271,1.874-0.815
		c2.661-2.498,5.187-4.372,7.577-5.621s5.16-1.874,8.31-1.874c3.694,0,7.17,1.006,10.429,3.015c3.259,2.009,6.057,4.644,8.392,7.901
		c0.381,0.545,0.856,1.305,1.426,2.28c0.571,0.979,0.965,1.632,1.182,1.957c0.597,0.923,1.358,1.386,2.281,1.386
		c0.978,0,1.765-0.463,2.363-1.386c0.217-0.325,0.611-0.978,1.181-1.957c0.571-0.976,1.046-1.735,1.426-2.28
		c2.335-3.256,5.119-5.893,8.351-7.901c3.232-2.009,6.694-3.015,10.388-3.015c3.693,0,7.156,1.005,10.389,3.015
		c3.231,2.009,6.016,4.644,8.35,7.901c0.383,0.545,0.856,1.305,1.428,2.28c0.57,0.979,0.965,1.632,1.184,1.957
		c0.596,0.923,1.383,1.386,2.361,1.386c0.924,0,1.684-0.463,2.279-1.386c0.219-0.325,0.613-0.978,1.184-1.957
		c0.571-0.976,1.045-1.735,1.428-2.28c2.336-3.256,5.133-5.893,8.391-7.901c3.26-2.01,6.736-3.015,10.43-3.015
		c3.15,0,5.92,0.625,8.311,1.874c2.39,1.249,4.914,3.123,7.576,5.621c0.652,0.545,1.277,0.815,1.875,0.815
		c0.705,0,1.317-0.258,1.832-0.774c0.516-0.516,0.773-1.125,0.773-1.833C175.785,71.995,175.76,71.805,175.702,71.697z"/>
</g>
</svg>
