<?xml version="1.0" ?><svg height="48px" version="1.1" viewBox="0 0 48 48" width="48px" xmlns="http://www.w3.org/2000/svg" xmlns:sketch="http://www.bohemiancoding.com/sketch/ns" xmlns:xlink="http://www.w3.org/1999/xlink"><title/><defs/><g fill="none" fill-rule="evenodd" id="shadow" stroke="none" stroke-width="1"><g id="pinterest"><path d="M24,48 C37.2548347,48 48,37.2548347 48,24 C48,10.7451653 37.2548347,0 24,0 C10.7451653,0 0,10.7451653 0,24 C0,37.2548347 10.7451653,48 24,48 Z" fill="#CA4638" id="Pinterest"/><path d="M0.535366913,29.0646331 C2.19283369,36.7805258 7.55957744,43.1190165 14.6777465,46.1222535 L31.8644531,28.9355469 L33.01875,18.4703125 L28.6285156,12.0730469 L16.5228516,13.0771484 L0.535366913,29.0646331 Z" fill="#000000" fill-opacity="0.400000006"/><path d="M26.2075627,31.2675209 C31.4920485,31.2675209 35.0769231,26.3496394 35.0769231,19.7666485 C35.0769231,14.790321 30.9466368,10.1538462 24.670986,10.1538462 C16.8611144,10.1538462 12.9230769,15.8700085 12.9230769,20.6366038 C12.9230769,23.5228257 13.9926964,26.090601 16.2893156,27.0476241 C16.6655672,27.2044421 17.0027094,27.052675 17.1122629,26.6276788 C17.1871834,26.3330436 17.3683591,25.5898415 17.4470491,25.2807753 C17.5573095,24.8598679 17.5149016,24.7124301 17.2109789,24.3453989 C16.5494169,23.5473585 16.1272235,22.5162558 16.1272235,21.0541439 C16.1272235,16.813803 19.2335964,13.0176998 24.2198139,13.0176998 C28.6328189,13.0176998 31.0592532,15.7704338 31.0592532,19.4484425 C31.0592532,24.2867124 28.9619508,28.3702352 25.8475674,28.3702352 C24.1272235,28.3702352 22.8410885,26.9184656 23.2529155,25.1381478 C23.7460243,23.0124454 24.704441,20.717418 24.704441,19.1829101 C24.704441,17.8100306 23.9823301,16.663479 22.4872188,16.663479 C20.7289433,16.663479 19.3169985,18.5207627 19.3169985,21.0074833 C19.3169985,22.5912976 19.8421487,23.6628074 19.8421487,23.6628074 C19.8421487,23.6628074 18.042879,31.444302 17.7269407,32.8065987 C17.4404524,34.047193 17.3975733,35.4106923 17.4378608,36.5630164 C17.5582519,37.5967648 18.5595476,38.4385795 19.4282012,37.3045349 C20.0388738,36.3080668 20.6954883,35.0496741 21.0352221,33.7883951 C21.2378372,33.0420663 22.1920132,29.1759721 22.1920132,29.1759721 C22.763812,30.2881296 24.433031,31.2675209 26.2075627,31.2675209 Z" fill="#FFFFFF" id="Pinterest"/></g></g></svg>